<?xml version="1.0" standalone="no"?><!DOCTYPE svg PUBLIC "-//W3C//DTD SVG 1.1//EN" "http://www.w3.org/Graphics/SVG/1.1/DTD/svg11.dtd"><svg t="1540352501122" class="icon" style="" viewBox="0 0 1024 1024" version="1.1" xmlns="http://www.w3.org/2000/svg" p-id="6101" xmlns:xlink="http://www.w3.org/1999/xlink" width="200" height="200"><defs><style type="text/css"></style></defs><path d="M250.353908 460.077443c-7.647167 0-15.192004-3.517103-20.070104-10.153244-8.133238-11.073196-5.752004-26.644847 5.321192-34.782178L422.209998 278.04355c7.562233-5.554506 17.720593-6.378268 26.085098-2.146896 8.370645 4.236488 13.760398 12.81998 13.760398 22.198581l0 87.944981L608.93268 278.04355c7.568373-5.554506 18.509563-6.378268 26.867928-2.146896 8.370645 4.236488 14.543228 12.81998 14.543228 22.198581l0 87.944981 146.035004-107.996666c7.562233-5.554506 16.878412-6.378268 25.242917-2.146896 8.370645 4.236488 12.917194 12.81998 12.917194 22.198581l0 137.098471c0 13.739932-11.33107 24.880667-25.071002 24.880667s-25.071002-11.140735-25.071002-24.880667l0-87.944981-146.557914 107.996666c-7.556093 5.560646-17.115819 6.384407-25.492604 2.146896-8.370645-4.236488-13.167904-12.81998-13.167904-22.198581l0-87.944981L451.927833 455.245392c-7.556093 5.560646-17.799388 6.384407-26.169009 2.146896-8.370645-4.236488-13.84431-12.81998-13.84431-22.198581l0-87.944981L264.992303 455.245392C260.558317 458.504622 255.468392 460.077443 250.353908 460.077443zM747.948827 932.807045 288.536532 932.807045c-13.739932 0-24.880667-11.140735-24.880667-24.880667L263.655865 731.687468c0-13.739932 11.140735-24.880667 24.880667-24.880667L747.948827 706.806801c13.739932 0 24.880667 11.140735 24.880667 24.880667l0 176.23891C772.829494 921.667334 761.688759 932.807045 747.948827 932.807045zM313.417199 883.045711l409.649937 0L723.067136 756.568135l-409.649937 0L313.417199 883.045711zM934.553829 933.886633 88.611154 933.886633c-13.739932 0-24.620747-12.220323-24.620747-25.960255L63.990407 111.745037c0-13.739932 10.880815-22.086018 24.620747-22.086018L250.335489 89.659019c13.739932 0 24.455995 8.346085 24.455995 22.086018l0 323.44867c0 13.739932-10.819416 24.880667-24.559349 24.880667s-24.559349-11.140735-24.559349-24.880667L225.672786 138.777717l-110.517069 0 0 745.990219 794.08561 0 0-423.648766-99.089809 0c-13.739932 0-24.880667-10.307763-24.880667-24.047696s11.140735-24.047696 24.880667-24.047696l124.403335 0c13.739932 0 24.828478 8.429996 24.828478 22.169929l0 472.732671C959.382307 921.667334 948.293761 933.886633 934.553829 933.886633zM494.311129 569.834196l52.813856 0 0 52.813856-52.813856 0 0-52.813856ZM721.541387 569.834196l52.813856 0 0 52.813856-52.813856 0 0-52.813856ZM267.081894 569.834196l52.81181 0 0 52.813856-52.81181 0 0-52.813856Z" p-id="6102"></path></svg>